<svg width="20" height="20" viewBox="0 0 20 20" fill="none" xmlns="http://www.w3.org/2000/svg">
<path d="M16.6666 18.334H14.9999V16.6673C14.9999 16.0043 14.7365 15.3684 14.2677 14.8996C13.7988 14.4307 13.163 14.1673 12.4999 14.1673H7.49992C6.83688 14.1673 6.20099 14.4307 5.73215 14.8996C5.26331 15.3684 4.99992 16.0043 4.99992 16.6673V18.334H3.33325V16.6673C3.33325 15.5623 3.77224 14.5024 4.55364 13.721C5.33504 12.9396 6.39485 12.5007 7.49992 12.5007H12.4999C13.605 12.5007 14.6648 12.9396 15.4462 13.721C16.2276 14.5024 16.6666 15.5623 16.6666 16.6673V18.334ZM9.99992 10.834C9.34331 10.834 8.69313 10.7047 8.0865 10.4534C7.47987 10.2021 6.92868 9.83381 6.46438 9.36952C6.00009 8.90523 5.63179 8.35403 5.38052 7.7474C5.12925 7.14077 4.99992 6.49059 4.99992 5.83398C4.99992 5.17738 5.12925 4.5272 5.38052 3.92057C5.63179 3.31394 6.00009 2.76274 6.46438 2.29845C6.92868 1.83416 7.47987 1.46586 8.0865 1.21459C8.69313 0.963313 9.34331 0.833984 9.99992 0.833984C11.326 0.833984 12.5978 1.36077 13.5355 2.29845C14.4731 3.23613 14.9999 4.5079 14.9999 5.83398C14.9999 7.16007 14.4731 8.43184 13.5355 9.36952C12.5978 10.3072 11.326 10.834 9.99992 10.834ZM9.99992 9.16732C10.884 9.16732 11.7318 8.81613 12.3569 8.19101C12.9821 7.56589 13.3333 6.71804 13.3333 5.83398C13.3333 4.94993 12.9821 4.10208 12.3569 3.47696C11.7318 2.85184 10.884 2.50065 9.99992 2.50065C9.11586 2.50065 8.26802 2.85184 7.6429 3.47696C7.01777 4.10208 6.66659 4.94993 6.66659 5.83398C6.66659 6.71804 7.01777 7.56589 7.6429 8.19101C8.26802 8.81613 9.11586 9.16732 9.99992 9.16732Z" fill="#7E7E7E"/>
</svg>
